<svg width="152" height="32" viewBox="0 0 152 32" fill="none" xmlns="http://www.w3.org/2000/svg">
<path fill-rule="evenodd" clip-rule="evenodd" d="M16.002 32C24.8385 32 32.002 24.8366 32.002 16C32.002 7.16344 24.8385 0 16.002 0C7.1654 0 0.00195312 7.16344 0.00195312 16C0.00195312 24.8366 7.1654 32 16.002 32ZM17.3926 23.9995H20.9424L25.2283 7.99951H21.6784L17.3926 23.9995ZM11.9128 13.7191C9.07335 13.7191 6.77148 16.021 6.77148 18.8604C6.77148 21.6999 9.07335 24.0018 11.9128 24.0018C14.7523 24.0018 17.0541 21.6999 17.0541 18.8604C17.0541 16.021 14.7502 13.7191 11.9128 13.7191ZM11.9121 20.4497C11.0332 20.4497 10.3228 19.7372 10.3228 18.8604C10.3228 17.9836 11.0353 17.271 11.9121 17.271C12.7911 17.271 13.5015 17.9836 13.5015 18.8604C13.5015 19.7372 12.7889 20.4497 11.9121 20.4497Z" fill="#1139B0"/>
<path fill-rule="evenodd" clip-rule="evenodd" d="M48.9611 21.8735C51.7557 21.8778 54.0619 19.4266 54.0661 16.2479C54.0704 13.0692 51.7685 10.6138 48.9739 10.6095C47.5445 10.6074 46.4971 11.0959 45.7931 11.9066L45.7952 10.9039L42.5952 10.8996L42.5781 25.833L45.7781 25.8372L45.7845 20.5679C46.4864 21.3807 47.5317 21.8714 48.9611 21.8735ZM48.3293 13.6387C49.8013 13.6387 50.868 14.6435 50.8659 16.2435C50.8637 17.8435 49.7971 18.8483 48.3251 18.8462C46.8531 18.844 45.7864 17.8392 45.7885 16.2392C45.7885 14.6392 46.8573 13.6366 48.3293 13.6387Z" fill="#1139B0"/>
<path fill-rule="evenodd" clip-rule="evenodd" d="M57.4905 6.1399C56.4452 6.13776 55.5705 7.01243 55.5684 8.05776C55.5684 9.1031 56.4409 9.97776 57.4862 9.9799C58.5316 9.98203 59.4062 9.10736 59.4084 8.06203C59.4105 7.0167 58.5358 6.14203 57.4905 6.1399ZM59.0865 10.9205L55.8865 10.9162L55.8737 21.5829L59.0737 21.5872L59.0865 10.9205Z" fill="#1139B0"/>
<path fill-rule="evenodd" clip-rule="evenodd" d="M67.7989 21.8963C70.5936 21.9006 72.8997 19.4494 72.904 16.2707C72.9083 13.0921 70.6064 10.6345 67.8117 10.6323C66.3824 10.6302 65.3371 11.1187 64.6309 11.9294L64.6331 10.9267L61.4331 10.9225L61.416 25.8558L64.616 25.8601L64.6224 20.5907C65.3243 21.4035 66.3696 21.8942 67.7989 21.8963ZM67.1678 13.6616C68.6398 13.6616 69.7065 14.6664 69.7043 16.2664C69.7022 17.8664 68.6334 18.8712 67.1614 18.8691C65.6894 18.8669 64.6227 17.8621 64.6249 16.2621C64.627 14.6621 65.6958 13.6595 67.1678 13.6616Z" fill="#1139B0"/>
<path fill-rule="evenodd" clip-rule="evenodd" d="M79.8433 10.6453C76.7073 10.641 74.1879 13.0922 74.1836 16.2709C74.1793 19.4517 76.6945 21.905 79.8305 21.9093C82.9665 21.9135 85.486 19.4623 85.4903 16.2837C85.4945 13.105 82.9793 10.6495 79.8433 10.6453ZM79.8385 13.7622C81.2252 13.7622 82.2918 14.767 82.2897 16.2817C82.2876 17.7963 81.2188 18.7969 79.8321 18.7969C78.4454 18.7969 77.3788 17.7921 77.3809 16.2774C77.383 14.7627 78.4518 13.7601 79.8385 13.7622Z" fill="#1139B0"/>
<path d="M100.913 18.4364C100.911 20.8897 98.7753 21.9329 96.4713 21.9307C94.3379 21.9286 92.7166 21.1158 91.8867 19.3857L94.6622 17.8113C94.9395 18.622 95.5347 19.0721 96.4734 19.0721C97.2414 19.0721 97.6254 18.8396 97.6254 18.4129C97.6275 17.2396 92.3774 17.8518 92.3817 14.1612C92.3838 11.8358 94.3486 10.6646 96.5673 10.6668C98.2953 10.6689 99.8313 11.439 100.725 12.9537L97.9923 14.4236C97.6937 13.8689 97.2691 13.4849 96.5651 13.4828C96.0105 13.4828 95.6691 13.694 95.6691 14.078C95.667 15.294 100.917 14.4897 100.913 18.4364Z" fill="#1139B0"/>
<path fill-rule="evenodd" clip-rule="evenodd" d="M113.346 21.6509L113.359 10.9842L110.159 10.9799L110.157 11.9826C109.455 11.1698 108.409 10.6791 106.98 10.677C104.185 10.6727 101.879 13.1239 101.875 16.3026C101.871 19.4813 104.173 21.9367 106.967 21.941C108.397 21.9431 109.442 21.4546 110.148 20.6439L110.146 21.6466L113.346 21.6509ZM107.615 13.7108C109.087 13.7108 110.154 14.7156 110.152 16.3156C110.15 17.9156 109.081 18.9161 107.611 18.9183C106.139 18.9161 105.072 17.9113 105.075 16.3113C105.075 14.7113 106.143 13.7087 107.615 13.7108Z" fill="#1139B0"/>
<path fill-rule="evenodd" clip-rule="evenodd" d="M118.756 9.71097L121.828 9.71524L124.307 6.73071L120.467 6.72644L118.756 9.71097ZM125.783 21.6659L125.795 10.9992L122.595 10.995L122.589 16.819C122.587 18.3336 121.776 19.0163 120.603 19.0142C119.579 19.0142 118.747 18.3934 118.749 17.0707L118.755 10.9907L115.555 10.9864L115.547 17.5358C115.545 20.4158 117.377 21.9539 119.532 21.956C120.94 21.9582 122.009 21.4483 122.585 20.659L122.583 21.6616L125.783 21.6659Z" fill="#1139B0"/>
<path fill-rule="evenodd" clip-rule="evenodd" d="M139.073 21.681L139.09 6.74767L135.89 6.74341L135.883 12.0127C135.181 11.1999 134.136 10.7093 132.707 10.7071C129.912 10.7029 127.606 13.1541 127.602 16.3327C127.597 19.5114 129.899 21.9669 132.694 21.9711C134.123 21.9733 135.168 21.4847 135.875 20.6741L135.873 21.6767L139.073 21.681ZM133.343 13.7407C134.815 13.7407 135.881 14.7455 135.879 16.3455C135.877 17.9455 134.808 18.9461 133.338 18.9482C131.866 18.9461 130.8 17.9413 130.802 16.3413C130.802 14.7413 131.871 13.7386 133.343 13.7407Z" fill="#1139B0"/>
<path fill-rule="evenodd" clip-rule="evenodd" d="M148.89 18.3234C148.462 18.7928 147.715 19.132 146.84 19.132C145.667 19.1298 144.686 18.7458 144.282 17.6344L151.856 17.6429C151.943 17.2376 151.986 16.8109 151.986 16.3629C151.99 13.1416 149.688 10.7288 146.574 10.7245C143.203 10.7202 140.897 13.1714 140.893 16.3501C140.888 19.5288 143.148 21.9842 146.796 21.9885C148.822 21.9928 150.401 21.2461 151.448 19.7976L148.89 18.3234ZM146.548 13.5638C147.508 13.5638 148.468 14.014 148.807 15.2513L144.221 15.247C144.522 14.159 145.332 13.5617 146.548 13.5638Z" fill="#1139B0"/>
</svg>
